<svg width="275" height="383" viewBox="0 0 275 383" fill="none" xmlns="http://www.w3.org/2000/svg">
<g clip-path="url(#clip0_80_15050)">
<path d="M258.39 1H16C7.71573 1 1 7.71573 1 16V366.73C1 375.014 7.71573 381.73 16 381.73H258.39C266.674 381.73 273.39 375.014 273.39 366.73V16C273.39 7.71573 266.674 1 258.39 1Z" fill="#252525" stroke="#878787" stroke-width="2"/>
<mask id="mask0_80_15050" style="mask-type:alpha" maskUnits="userSpaceOnUse" x="2" y="2" width="271" height="379">
<path d="M258.39 2H16C8.26801 2 2 8.26801 2 16V366.73C2 374.462 8.26801 380.73 16 380.73H258.39C266.122 380.73 272.39 374.462 272.39 366.73V16C272.39 8.26801 266.122 2 258.39 2Z" fill="#252525"/>
</mask>
<g mask="url(#mask0_80_15050)">
<path d="M96.2367 180.646L138.258 151V231L95.9631 199.59C89.2358 194.594 89.3673 185.493 96.2367 180.646Z" fill="#FF2D35"/>
<path fill-rule="evenodd" clip-rule="evenodd" d="M179.103 180.646C185.973 185.493 186.104 194.594 179.377 199.59L137.082 231V151L179.103 180.646ZM146.485 168.185L173.191 187.027C175.481 188.642 175.525 191.676 173.283 193.342L146.485 213.243V168.185Z" fill="#FF2D35"/>
<path opacity="0.1" d="M225 147C274.706 147 315 106.706 315 57C315 7.29437 274.706 -33 225 -33C175.294 -33 135 7.29437 135 57C135 106.706 175.294 147 225 147Z" fill="white"/>
<path opacity="0.1" d="M248 410C270.644 410 289 391.644 289 369C289 346.356 270.644 328 248 328C225.356 328 207 346.356 207 369C207 391.644 225.356 410 248 410Z" fill="white"/>
<g opacity="0.4">
<path d="M-16.8592 235.742C-16.7596 235.569 -16.6694 235.39 -16.5639 235.221C-15.8332 234.036 -14.9103 232.968 -13.857 232.02C-10.5309 229.025 -5.86918 227.23 -1.57515 226.809C13.8881 225.294 25.4856 232.381 33.8969 245.027C41.7246 256.797 46.3128 271.672 57.7121 280.669C60.4297 282.815 63.9502 286.362 67.8149 289.192C67.9572 290.161 68.1458 291.078 68.3676 291.881C69.402 295.592 71.1363 299.187 72.4174 302.724C72.5977 303.222 73.1444 303.476 73.6391 303.297C74.1337 303.116 74.3888 302.567 74.2085 302.071C72.8787 298.413 71.1694 294.851 70.2039 291.368C70.1457 291.158 70.09 290.935 70.0354 290.704C71.5538 291.652 73.1112 292.433 74.6806 292.938C74.7019 293.99 74.855 295.037 75.0863 295.877C75.5928 297.696 76.4232 299.409 77.0163 301.051C77.1966 301.547 77.7445 301.803 78.238 301.622C78.7326 301.442 78.9877 300.893 78.8074 300.397C78.1645 298.633 77.3602 296.954 76.9225 295.364C76.7742 294.835 76.6532 294.122 76.6034 293.406C78.0814 293.646 79.563 293.595 81.0256 293.158C81.3542 293.479 81.6827 293.816 82.0053 294.165C83.4466 295.715 84.8142 297.475 85.8605 298.93C86.1689 299.358 86.7644 299.454 87.1915 299.146C87.6185 298.837 87.7157 298.239 87.4073 297.811C86.3266 296.308 84.9198 294.496 83.4003 292.861C83.2437 292.693 83.0848 292.527 82.9258 292.364C82.9744 292.337 83.0244 292.317 83.0742 292.288C83.9259 291.803 84.7586 291.401 85.5759 291.06C87.5794 293.445 89.4285 295.869 90.954 297.991C91.2624 298.419 91.8579 298.515 92.2861 298.207C92.7131 297.898 92.8092 297.3 92.502 296.872C91.0702 294.881 89.3633 292.63 87.501 290.381C89.2637 289.858 90.9505 289.648 92.5721 289.68C93.2245 289.693 93.8661 289.739 94.4983 289.824C95.7747 289.995 97.0131 290.303 98.2183 290.708C98.8363 290.916 99.4472 291.149 100.051 291.403C100.609 291.637 101.161 291.885 101.707 292.151C102.08 292.332 102.447 292.523 102.809 292.719C103.623 293.162 104.403 293.654 105.145 294.195C106.383 295.098 107.496 296.156 108.416 297.417C108.556 297.61 108.702 297.798 108.833 297.999C109.466 298.975 110.063 300.065 110.595 301.207C111.678 303.532 112.471 306.091 112.589 308.454C112.636 309.393 112.171 310.732 112.57 311.603C112.98 312.492 114.044 312.698 114.816 313.168C119.422 315.979 114.154 321.236 111.732 323.482C110.71 324.429 109.633 325.272 108.527 326.068C108.002 326.445 107.473 326.814 106.938 327.175C105.352 328.241 103.73 329.257 102.132 330.36C99.3642 332.27 96.7936 333.517 93.5091 334.191C93.3904 334.216 93.2789 334.244 93.1591 334.267C92.5459 334.382 91.9303 334.479 91.3147 334.567C87.6837 335.084 84.0147 335.13 80.3553 334.889C75.5619 329.098 71.6879 322.525 67.1626 316.329C66.8518 315.903 66.2539 315.812 65.8305 316.123C65.4058 316.435 65.3133 317.035 65.6253 317.46C69.7259 323.067 73.3568 329.107 77.7433 334.674C75.4421 334.444 73.1504 334.124 70.8788 333.756C66.9596 333.122 63.0736 332.299 59.1865 331.496C57.4843 331.143 55.7846 330.733 54.0919 330.271C51.7764 326.279 49.6863 322.078 47.6271 317.762C47.4005 317.285 46.8312 317.084 46.3555 317.311C45.881 317.54 45.6794 318.11 45.9071 318.587C47.6829 322.311 49.4906 325.972 51.4585 329.507C47.2499 328.216 43.116 326.617 39.1612 324.805C30.7214 320.938 21.7811 317.409 13.8027 312.487C13.7932 312.465 13.7814 312.443 13.7731 312.421C11.7589 307.856 10.1291 303.167 9.02232 298.315C7.34504 290.971 6.84329 283.344 5.59066 275.76C5.50407 275.238 5.01298 274.886 4.49343 274.973C3.97387 275.06 3.62275 275.552 3.70934 276.074C4.94654 283.532 5.44475 291.198 7.16354 298.743C8.09352 302.82 9.38292 306.77 10.9452 310.622C10.0982 310.043 9.26074 309.451 8.44345 308.831C3.57886 305.14 -0.929868 300.73 -4.72688 295.943C-7.62713 292.287 -10.1228 288.278 -12.2271 284.052C-12.4739 280.81 -12.5616 277.524 -12.5616 274.192C-12.5616 272.21 -12.532 270.211 -12.4881 268.197C-12.4762 267.669 -12.8938 267.231 -13.4204 267.22C-13.9471 267.208 -14.3825 267.627 -14.3943 268.156C-14.4382 270.179 -14.4679 272.191 -14.4679 274.192C-14.4679 275.901 -14.4418 277.602 -14.3872 279.297C-16.7643 273.576 -18.4772 267.568 -19.5365 261.568C-19.6314 261.036 -19.718 260.498 -19.7998 259.957C-19.954 258.935 -20.0821 257.896 -20.1853 256.85C-20.9148 249.469 -20.279 241.671 -16.8592 235.742Z" fill="#D91F26" fill-opacity="0.4"/>
<path d="M93.4916 286.405C94.1546 284.417 95.3729 281.956 96.8698 279.92C97.6195 278.902 98.4392 277.991 99.33 277.304C99.7748 276.96 100.241 276.672 100.733 276.465C101.226 276.258 101.749 276.132 102.29 276.132C102.982 276.128 103.692 276.352 104.305 276.791C104.923 277.229 105.454 277.861 105.924 278.681C107.709 281.812 108.814 286.202 109.544 290.804C110.099 294.323 110.42 297.957 110.595 301.21C110.063 300.067 109.466 298.976 108.833 298.001C108.701 297.799 108.556 297.611 108.416 297.419C108.235 295.338 107.99 293.195 107.661 291.104C106.958 286.623 105.851 282.383 104.269 279.635C103.9 278.989 103.53 278.587 103.205 278.357C102.877 278.129 102.599 278.051 102.288 278.048C102.046 278.048 101.775 278.105 101.47 278.232C100.937 278.454 100.319 278.903 99.7048 279.522C98.7796 280.448 97.8603 281.739 97.0893 283.09C96.3159 284.44 95.6848 285.854 95.3005 287.014C94.998 287.921 94.7383 288.864 94.4986 289.826C93.8676 289.742 93.2247 289.694 92.5723 289.682C92.8415 288.577 93.1357 287.48 93.4904 286.41L93.4916 286.405Z" fill="white" fill-opacity="0.4"/>
<path d="M101.981 290.688C101.833 290.427 101.7 290.296 101.623 290.244C101.542 290.19 101.526 290.193 101.478 290.189C101.443 290.189 101.38 290.197 101.285 290.238C101.12 290.305 100.87 290.477 100.609 290.74C100.425 290.925 100.236 291.152 100.051 291.402C99.4476 291.147 98.8379 290.915 98.2188 290.707C98.3136 290.563 98.405 290.414 98.507 290.276C98.883 289.768 99.2946 289.304 99.7703 288.936C100.009 288.753 100.264 288.593 100.547 288.474C100.829 288.355 101.144 288.277 101.478 288.277C101.908 288.273 102.356 288.417 102.723 288.68C103.091 288.943 103.387 289.303 103.636 289.737C104.335 290.967 104.804 292.523 105.146 294.193C104.405 293.653 103.625 293.161 102.81 292.718C102.57 291.928 102.293 291.228 101.982 290.689L101.981 290.688Z" fill="white" fill-opacity="0.4"/>
<path d="M107.141 347.943C101.898 345.062 97.5595 341.388 93.7032 337.257C92.8859 336.382 92.0935 335.482 91.3154 334.567C91.931 334.479 92.5466 334.382 93.1599 334.267C93.2797 334.243 93.3924 334.215 93.5098 334.191C94.0306 334.786 94.5573 335.374 95.0946 335.951C98.8489 339.972 103.026 343.501 108.057 346.267C111.038 347.906 114.37 349.682 117.809 351.038C121.246 352.399 124.784 353.333 128.156 353.332C128.602 353.332 129.046 353.315 129.486 353.282C130.98 353.171 132.464 352.665 133.503 351.949C134.024 351.592 134.432 351.188 134.697 350.778C134.961 350.366 135.09 349.96 135.092 349.531C135.092 349.168 134.999 348.773 134.755 348.316C134.512 347.86 134.108 347.348 133.499 346.806C132.337 345.77 130.944 344.909 129.468 344.104C127.992 343.296 126.437 342.547 124.962 341.703C121.109 339.499 117.449 336.993 114.069 334.079C111.544 331.902 109.217 329.551 106.938 327.176C107.473 326.815 108.002 326.446 108.527 326.069C110.721 328.352 112.939 330.584 115.311 332.627C118.585 335.45 122.142 337.888 125.905 340.04C127.301 340.839 128.848 341.586 130.379 342.423C131.91 343.261 133.429 344.188 134.763 345.374C135.504 346.035 136.058 346.711 136.433 347.409C136.81 348.104 136.999 348.827 136.999 349.53C137 350.366 136.731 351.15 136.297 351.819C135.642 352.825 134.64 353.597 133.481 354.165C132.319 354.729 130.99 355.084 129.63 355.189C129.14 355.226 128.649 355.244 128.157 355.244C124.435 355.241 120.683 354.229 117.11 352.819C113.538 351.407 110.14 349.591 107.141 347.943Z" fill="white" fill-opacity="0.4"/>
<path d="M46.3584 317.311C46.8329 317.084 47.4022 317.285 47.63 317.762C49.6892 322.079 51.7805 326.279 54.0948 330.271C54.982 331.8 55.899 333.301 56.8633 334.763C60.3472 340.043 64.4064 344.848 69.5817 348.956C72.8426 351.544 76.5305 354.388 80.4366 356.669C84.3427 358.953 88.4577 360.662 92.5512 361.04C92.8751 361.07 93.2013 361.085 93.5263 361.085C95.2202 361.089 96.8796 360.67 98.0291 359.972C98.6067 359.625 99.0528 359.216 99.3469 358.776C99.6399 358.334 99.7929 357.871 99.7941 357.324C99.7965 356.536 99.4501 355.509 98.449 354.257C97.3221 352.851 95.9034 351.604 94.3839 350.405C92.8656 349.206 91.2511 348.059 89.7482 346.825C85.8172 343.596 82.1649 340.066 78.9052 336.127C78.509 335.649 78.1306 335.159 77.7463 334.674C73.3598 329.106 69.7288 323.067 65.6281 317.46C65.3173 317.034 65.4087 316.435 65.8333 316.123C66.258 315.812 66.8547 315.903 67.1654 316.329C71.6908 322.525 75.5649 329.098 80.3583 334.889C80.363 334.895 80.3666 334.9 80.3714 334.906C83.5421 338.735 87.1042 342.181 90.9546 345.346C92.3863 346.521 93.9936 347.666 95.5618 348.902C97.1299 350.141 98.6625 351.475 99.9341 353.06C101.114 354.532 101.699 355.966 101.7 357.325C101.702 358.257 101.413 359.123 100.929 359.843C100.2 360.927 99.0741 361.699 97.7859 362.217C96.4941 362.734 95.0232 362.996 93.5263 362.998C93.1431 362.998 92.7588 362.981 92.3757 362.944C87.8764 362.524 83.5243 360.686 79.477 358.321C75.4297 355.957 71.6765 353.055 68.3991 350.454C63.0351 346.198 58.8383 341.221 55.2738 335.817C53.9228 333.77 52.663 331.661 51.4626 329.505C49.4947 325.969 47.6869 322.309 45.9112 318.584C45.6834 318.108 45.8851 317.537 46.3596 317.309L46.3584 317.311Z" fill="white" fill-opacity="0.4"/>
<path d="M-13.4192 267.219C-12.8925 267.23 -12.4749 267.668 -12.4868 268.196C-12.5307 270.21 -12.5604 272.209 -12.5604 274.191C-12.5604 277.523 -12.4726 280.807 -12.2259 284.051C-11.6505 291.567 -10.2069 298.858 -6.92352 305.971C-5.17863 309.756 -3.16566 313.964 -0.705494 317.768C1.75349 321.574 4.65731 324.963 8.14117 327.151C9.69746 328.136 11.5431 328.698 13.0686 328.693C14.167 328.693 15.0661 328.411 15.6533 327.909C15.9499 327.654 16.1847 327.345 16.3591 326.936C16.5311 326.527 16.639 326.013 16.639 325.365C16.639 324.901 16.5833 324.368 16.4552 323.767C16.0827 322.002 15.3769 320.246 14.5596 318.488C13.7435 316.73 12.8195 314.975 12.033 313.194C11.657 312.342 11.2976 311.481 10.9489 310.62C9.38785 306.769 8.09727 302.817 7.16729 298.74C5.44849 291.196 4.95029 283.53 3.71309 276.071C3.62649 275.55 3.97761 275.057 4.49716 274.971C5.01671 274.884 5.5078 275.236 5.59439 275.757C6.8482 283.342 7.34878 290.967 9.02606 298.313C10.1328 303.166 11.7626 307.854 13.7767 312.419C13.7862 312.44 13.7969 312.463 13.8064 312.485C14.5501 314.162 15.4552 315.888 16.2879 317.68C17.1301 319.495 17.8988 321.378 18.3199 323.369C18.4705 324.082 18.5452 324.746 18.5452 325.365C18.5452 326.225 18.4005 327.001 18.1159 327.679C17.6924 328.698 16.9403 329.467 16.0459 329.935C15.1504 330.407 14.1267 330.604 13.0698 330.605C11.0995 330.601 8.97506 329.928 7.12815 328.77C3.30148 326.36 0.245834 322.749 -2.30448 318.808C-4.85362 314.866 -6.89862 310.578 -8.65419 306.774C-12.781 297.83 -14.0822 288.664 -14.3871 279.295C-14.4417 277.599 -14.4678 275.899 -14.4678 274.19C-14.4678 272.187 -14.4381 270.175 -14.3942 268.153C-14.3824 267.625 -13.947 267.206 -13.4203 267.218L-13.4192 267.219Z" fill="white" fill-opacity="0.4"/>
<path d="M70.2054 291.367C71.1709 294.85 72.8802 298.412 74.2099 302.07C74.3902 302.566 74.134 303.116 73.6406 303.296C73.1447 303.476 72.5979 303.221 72.4188 302.723C71.1389 299.185 69.4035 295.589 68.3691 291.88C68.1473 291.077 67.9587 290.159 67.8164 289.191C67.642 288.008 67.5364 286.747 67.5352 285.502C67.54 283.674 67.7487 281.901 68.362 280.461C68.6716 279.742 69.0927 279.095 69.6882 278.611C70.2789 278.124 71.0547 277.836 71.8909 277.842C72.6715 277.842 73.4923 278.069 74.3701 278.501C77.5942 280.096 80.9582 283.115 84.1289 286.52C85.2914 287.771 86.423 289.074 87.5036 290.38C89.366 292.627 91.0729 294.879 92.5047 296.871C92.8131 297.299 92.7158 297.897 92.2888 298.206C91.8617 298.514 91.2663 298.418 90.9567 297.989C89.4312 295.868 87.5819 293.444 85.5785 291.059C84.6568 289.962 83.7055 288.872 82.7328 287.826C79.6534 284.505 76.37 281.612 73.5291 280.22C72.8375 279.879 72.2919 279.755 71.8898 279.757C71.4556 279.761 71.1721 279.876 70.8874 280.099C70.4663 280.433 70.0689 281.126 69.8175 282.094C69.5613 283.054 69.4426 284.255 69.4426 285.504C69.4403 287.295 69.6846 289.197 70.0381 290.704C70.0915 290.935 70.1484 291.158 70.2065 291.368L70.2054 291.367Z" fill="white" fill-opacity="0.4"/>
<path d="M76.9251 295.362C77.3628 296.952 78.1658 298.631 78.8099 300.394C78.9902 300.891 78.7352 301.439 78.2405 301.62C77.7459 301.801 77.1991 301.545 77.0188 301.049C76.4257 299.407 75.5965 297.693 75.0888 295.875C74.8575 295.036 74.7045 293.988 74.6831 292.936C74.682 292.863 74.6748 292.792 74.6748 292.719C74.6796 291.811 74.7745 290.921 75.1066 290.133C75.2763 289.741 75.5147 289.363 75.88 289.065C76.2406 288.765 76.7376 288.583 77.2382 288.589C77.7079 288.589 78.1694 288.724 78.6344 288.952C80.0946 289.677 81.5441 290.931 82.9284 292.362C83.0873 292.526 83.2451 292.69 83.4029 292.858C84.9224 294.494 86.328 296.306 87.4098 297.809C87.7183 298.237 87.621 298.834 87.1939 299.144C86.7669 299.453 86.1715 299.356 85.863 298.927C84.8168 297.472 83.4491 295.712 82.0079 294.162C81.6852 293.814 81.3567 293.477 81.0281 293.156C79.8965 292.049 78.7589 291.139 77.7933 290.669C77.5146 290.531 77.3296 290.5 77.2382 290.501C77.1386 290.507 77.1338 290.514 77.0793 290.552C77.0033 290.604 76.8444 290.834 76.7424 291.234C76.6368 291.628 76.581 292.159 76.5822 292.719C76.5822 292.944 76.5906 293.174 76.6072 293.403C76.657 294.12 76.778 294.832 76.9262 295.362H76.9251Z" fill="white" fill-opacity="0.4"/>
<path d="M108.13 305C108.928 305.001 109.582 305.23 110.04 305.452C110.499 305.675 110.769 305.898 110.812 305.934C111.217 306.272 111.271 306.876 110.935 307.281C110.6 307.684 110.003 307.74 109.599 307.408C109.599 307.408 109.423 307.271 109.155 307.147C108.886 307.023 108.528 306.912 108.132 306.912C107.811 306.913 107.463 306.977 107.059 307.186C106.658 307.394 106.197 307.753 105.701 308.379C105.372 308.792 104.773 308.86 104.361 308.533C103.949 308.204 103.88 307.602 104.208 307.188C104.84 306.389 105.508 305.836 106.181 305.486C106.855 305.135 107.53 304.997 108.129 304.998L108.13 305Z" fill="white" fill-opacity="0.4"/>
<path d="M94.6312 307.459C94.1959 307.757 93.6028 307.643 93.3062 307.206C93.0109 306.768 93.1235 306.174 93.5601 305.878C93.5956 305.854 93.961 305.606 94.5422 305.357C95.1247 305.108 95.9253 304.847 96.8541 304.845C97.5184 304.844 98.2538 304.988 98.9525 305.384C99.6524 305.777 100.293 306.414 100.808 307.305C101.073 307.762 100.918 308.347 100.463 308.612C100.007 308.878 99.4234 308.722 99.1589 308.266C98.7841 307.62 98.3938 307.265 98.0178 307.051C97.6406 306.838 97.2574 306.76 96.8553 306.758C96.299 306.756 95.7213 306.93 95.2955 307.115C95.0819 307.207 94.9076 307.299 94.7902 307.366C94.732 307.4 94.6881 307.427 94.6608 307.444L94.6336 307.46L94.6312 307.459Z" fill="white" fill-opacity="0.4"/>
<path d="M107.637 320.754C107.195 321.032 106.67 321.201 106.12 321.201C105.57 321.201 105.044 321.032 104.603 320.754C104.043 320.401 103.609 319.889 103.279 319.291C102.404 320.449 101.021 321.201 99.4587 321.201C96.8111 321.201 94.6641 319.052 94.6641 316.397C94.6641 315.869 95.0911 315.44 95.6178 315.44C96.1445 315.44 96.5715 315.869 96.5715 316.397C96.5715 317.198 96.893 317.914 97.4161 318.44C97.9416 318.965 98.6569 319.288 99.4587 319.288C100.259 319.288 100.975 318.965 101.501 318.44C102.024 317.914 102.346 317.198 102.346 316.397C102.346 316.296 102.366 316.201 102.394 316.11C101.907 315.557 101.491 314.869 101.491 314.479C101.491 313.755 105.637 313.566 105.637 314.29C105.637 314.757 105.057 315.731 104.468 316.363C104.468 316.376 104.471 316.386 104.471 316.398C104.469 317.285 104.721 318.073 105.069 318.581C105.241 318.837 105.433 319.019 105.611 319.131C105.791 319.242 105.952 319.288 106.12 319.288C106.288 319.288 106.449 319.241 106.629 319.131C106.897 318.965 107.193 318.63 107.412 318.15C107.631 317.673 107.77 317.062 107.77 316.398C107.77 315.87 108.197 315.442 108.724 315.442C109.25 315.442 109.677 315.87 109.677 316.398C109.675 317.636 109.345 318.772 108.75 319.655C108.451 320.097 108.082 320.476 107.638 320.755L107.637 320.754Z" fill="white" fill-opacity="0.4"/>
<path d="M98.858 313.833C99.189 313.833 99.4582 314.102 99.4582 314.435C99.4582 314.768 99.189 315.036 98.858 315.036C98.5271 315.036 98.2578 314.767 98.2578 314.435C98.2578 314.103 98.5259 313.833 98.858 313.833Z" fill="white" fill-opacity="0.4"/>
<path d="M99.982 315.932C100.315 315.932 100.583 316.201 100.583 316.533C100.583 316.865 100.313 317.135 99.982 317.135C99.6511 317.135 99.3818 316.866 99.3818 316.533C99.3818 316.2 99.6511 315.932 99.982 315.932Z" fill="white" fill-opacity="0.4"/>
<path d="M97.8531 317.212C97.5216 317.212 97.2529 316.943 97.2529 316.61C97.2529 316.278 97.5216 316.008 97.8531 316.008C98.1846 316.008 98.4533 316.278 98.4533 316.61C98.4533 316.943 98.1846 317.212 97.8531 317.212Z" fill="white" fill-opacity="0.4"/>
<path d="M106.375 315.151C106.176 315.151 106.014 314.882 106.014 314.549C106.014 314.216 106.176 313.947 106.375 313.947C106.574 313.947 106.733 314.217 106.733 314.549C106.733 314.881 106.573 315.151 106.375 315.151Z" fill="white" fill-opacity="0.4"/>
<path d="M107.048 316.046C107.247 316.046 107.407 316.315 107.407 316.648C107.407 316.981 107.246 317.25 107.048 317.25C106.85 317.25 106.688 316.981 106.688 316.648C106.688 316.315 106.85 316.046 107.048 316.046Z" fill="white" fill-opacity="0.4"/>
<path d="M105.772 317.326C105.574 317.326 105.413 317.056 105.413 316.724C105.413 316.392 105.574 316.123 105.772 316.123C105.97 316.123 106.132 316.392 106.132 316.724C106.132 317.056 105.97 317.326 105.772 317.326Z" fill="white" fill-opacity="0.4"/>
<path d="M130.359 346.885L133.06 349.596C133.432 349.969 133.432 350.576 133.06 350.949C132.687 351.323 132.083 351.323 131.711 350.949L129.01 348.238C128.638 347.865 128.638 347.259 129.01 346.885C129.382 346.512 129.986 346.512 130.359 346.885Z" fill="white" fill-opacity="0.4"/>
<path d="M123.352 346.871L127.483 350.858C127.863 351.224 127.875 351.83 127.509 352.211C127.144 352.591 126.542 352.603 126.162 352.237L122.029 348.252C121.65 347.885 121.638 347.281 122.003 346.899C122.368 346.518 122.971 346.506 123.352 346.871Z" fill="white" fill-opacity="0.4"/>
<path d="M96.3123 355.516L98.5483 357.907C98.9089 358.293 98.8888 358.898 98.5056 359.26C98.1213 359.622 97.5175 359.602 97.1581 359.217L94.9221 356.825C94.5615 356.44 94.5817 355.834 94.9648 355.472C95.3491 355.111 95.9517 355.131 96.3123 355.516Z" fill="white" fill-opacity="0.4"/>
<path d="M90.4443 355.663L92.5368 359.01C92.8167 359.458 92.6815 360.048 92.2355 360.329C91.7895 360.609 91.2011 360.475 90.9212 360.026L88.8287 356.679C88.5488 356.231 88.6828 355.641 89.13 355.36C89.576 355.08 90.1644 355.214 90.4443 355.663Z" fill="white" fill-opacity="0.4"/>
<path d="M11.8029 322.174L13.7103 324.088C14.0828 324.46 14.0828 325.067 13.7103 325.441C13.3379 325.815 12.7341 325.815 12.3616 325.441L10.4542 323.527C10.0817 323.154 10.0817 322.548 10.4542 322.174C10.8267 321.801 11.4304 321.801 11.8029 322.174Z" fill="white" fill-opacity="0.4"/>
<path d="M7.69998 322.204L9.44725 324.118C9.80311 324.507 9.77582 325.113 9.38912 325.469C9.00124 325.826 8.39747 325.8 8.04161 325.411L6.29316 323.499C5.9373 323.109 5.96458 322.504 6.35247 322.147C6.74035 321.79 7.34413 321.817 7.69998 322.207V322.204Z" fill="white" fill-opacity="0.4"/>
</g>
</g>
<path d="M66.3203 42.9766C66.3203 45.8737 65.7669 48.6081 64.6602 51.1797C63.5534 53.7188 62.0397 55.9486 60.1191 57.8691C58.2311 59.7572 56.0176 61.2546 53.4785 62.3613C50.9395 63.4681 48.2214 64.0215 45.3242 64.0215H38.293C37.3164 64.0215 36.4049 64.2005 35.5586 64.5586C34.7122 64.9167 33.9635 65.4212 33.3125 66.0723C32.694 66.6908 32.2057 67.4232 31.8477 68.2695C31.4896 69.1159 31.3105 70.0273 31.3105 71.0039V77.9863H64.416V92H17.2969V71.0039C17.2969 68.1068 17.8503 65.3887 18.957 62.8496C20.0638 60.278 21.5612 58.0482 23.4492 56.1602C25.3698 54.2396 27.5996 52.7422 30.1387 51.668C32.6777 50.5612 35.3958 50.0078 38.293 50.0078H45.3242C46.3008 50.0078 47.2122 49.8288 48.0586 49.4707C48.9049 49.1126 49.6374 48.6243 50.2559 48.0059C50.9069 47.3548 51.4115 46.6061 51.7695 45.7598C52.1276 44.8809 52.3066 43.9531 52.3066 42.9766C52.3066 42 52.1276 41.0885 51.7695 40.2422C51.4115 39.3958 50.9069 38.6634 50.2559 38.0449C49.6374 37.3939 48.9049 36.8893 48.0586 36.5312C47.2122 36.1732 46.3008 35.9941 45.3242 35.9941H20.3242V21.9805H45.3242C48.2214 21.9805 50.9395 22.5339 53.4785 23.6406C56.0176 24.7474 58.2311 26.2611 60.1191 28.1816C62.0397 30.0697 63.5534 32.2832 64.6602 34.8223C65.7669 37.3613 66.3203 40.0794 66.3203 42.9766Z" fill="#FF2D35"/>
<path d="M26.6183 117.823L47.6289 103V143L26.4816 127.295C23.1179 124.797 23.1836 120.246 26.6183 117.823Z" fill="#FF2D35"/>
<path fill-rule="evenodd" clip-rule="evenodd" d="M68.0516 117.823C71.4863 120.246 71.552 124.797 68.1883 127.295L47.041 143V103L68.0516 117.823ZM51.7425 111.593L65.0956 121.013C66.2405 121.821 66.2624 123.338 65.1412 124.171L51.7425 134.121V111.593Z" fill="#FF2D35"/>
<path d="M184 103.5H90C82.5442 103.5 76.5 109.544 76.5 117V266C76.5 273.456 82.5442 279.5 90 279.5H184C191.456 279.5 197.5 273.456 197.5 266V117C197.5 109.544 191.456 103.5 184 103.5Z" stroke="#FF2D35"/>
<path opacity="0.5" d="M182 109.5H92C86.201 109.5 81.5 114.201 81.5 120V263C81.5 268.799 86.201 273.5 92 273.5H182C187.799 273.5 192.5 268.799 192.5 263V120C192.5 114.201 187.799 109.5 182 109.5Z" stroke="#FF2D35"/>
</g>
<defs>
<clipPath id="clip0_80_15050">
<rect width="275" height="383" fill="white"/>
</clipPath>
</defs>
</svg>
