<svg width="271" height="379" viewBox="0 0 271 379" fill="none" xmlns="http://www.w3.org/2000/svg">
<rect width="270.39" height="378.73" rx="14" fill="#252525"/>
<mask id="mask0_28_526" style="mask-type:alpha" maskUnits="userSpaceOnUse" x="0" y="0" width="271" height="379">
<rect width="270.39" height="378.73" rx="14" fill="#252525"/>
</mask>
<g mask="url(#mask0_28_526)">
<circle opacity="0.1" cx="223" cy="55" r="90" fill="white"/>
<circle opacity="0.1" cx="246" cy="367" r="41" fill="white"/>
<g opacity="0.4">
<path d="M-18.859 233.742C-18.7594 233.569 -18.6692 233.39 -18.5637 233.221C-17.833 232.036 -16.9101 230.968 -15.8568 230.02C-12.5307 227.025 -7.86893 225.23 -3.5749 224.809C11.8883 223.294 23.4858 230.381 31.8971 243.027C39.7248 254.797 44.313 269.672 55.7123 278.669C58.4299 280.815 61.9505 284.362 65.8152 287.192C65.9575 288.161 66.1461 289.078 66.3679 289.881C67.4023 293.592 69.1365 297.187 70.4176 300.724C70.5979 301.222 71.1447 301.476 71.6394 301.297C72.134 301.116 72.3891 300.567 72.2088 300.071C70.879 296.413 69.1697 292.851 68.2042 289.368C68.146 289.158 68.0903 288.935 68.0357 288.704C69.5541 289.652 71.1115 290.433 72.6809 290.938C72.7022 291.99 72.8552 293.037 73.0865 293.877C73.593 295.696 74.4234 297.409 75.0165 299.051C75.1968 299.547 75.7448 299.803 76.2383 299.622C76.7329 299.442 76.9879 298.893 76.8076 298.397C76.1647 296.633 75.3605 294.954 74.9228 293.364C74.7745 292.835 74.6535 292.122 74.6037 291.406C76.0817 291.646 77.5632 291.595 79.0258 291.158C79.3544 291.479 79.683 291.816 80.0056 292.165C81.4469 293.715 82.8145 295.475 83.8608 296.93C84.1692 297.358 84.7646 297.454 85.1917 297.146C85.6187 296.837 85.716 296.239 85.4076 295.811C84.3269 294.308 82.9201 292.496 81.4006 290.861C81.244 290.693 81.0851 290.527 80.9261 290.364C80.9747 290.337 81.0246 290.317 81.0744 290.288C81.9261 289.803 82.7588 289.401 83.5761 289.06C85.5796 291.445 87.4288 293.869 88.9543 295.991C89.2627 296.419 89.8582 296.515 90.2864 296.207C90.7134 295.898 90.8095 295.3 90.5023 294.872C89.0705 292.881 87.3636 290.63 85.5013 288.381C87.264 287.858 88.9507 287.648 90.5723 287.68C91.2247 287.693 91.8664 287.739 92.4986 287.824C93.775 287.995 95.0134 288.303 96.2186 288.708C96.8366 288.916 97.4474 289.149 98.0512 289.403C98.6087 289.637 99.1615 289.885 99.7072 290.151C100.08 290.332 100.447 290.523 100.809 290.719C101.623 291.162 102.403 291.654 103.145 292.195C104.383 293.098 105.496 294.156 106.416 295.417C106.556 295.61 106.702 295.798 106.833 295.999C107.466 296.975 108.063 298.065 108.595 299.207C109.678 301.532 110.471 304.091 110.589 306.454C110.636 307.393 110.171 308.732 110.57 309.603C110.98 310.492 112.044 310.698 112.816 311.168C117.422 313.979 112.154 319.236 109.732 321.482C108.71 322.429 107.633 323.272 106.527 324.068C106.002 324.445 105.473 324.814 104.938 325.175C103.352 326.241 101.73 327.257 100.132 328.36C97.3644 330.27 94.7939 331.517 91.5094 332.191C91.3907 332.216 91.2792 332.244 91.1594 332.267C90.5462 332.382 89.9305 332.479 89.3149 332.567C85.6839 333.084 82.015 333.13 78.3556 332.889C73.5622 327.098 69.6881 320.525 65.1628 314.329C64.852 313.903 64.2541 313.812 63.8307 314.123C63.406 314.435 63.3135 315.035 63.6255 315.46C67.7261 321.067 71.3571 327.107 75.7436 332.674C73.4424 332.444 71.1507 332.124 68.8791 331.756C64.9599 331.122 61.0739 330.299 57.1868 329.496C55.4846 329.143 53.7848 328.733 52.0921 328.271C49.7766 324.279 47.6865 320.078 45.6273 315.762C45.4007 315.285 44.8314 315.084 44.3557 315.311C43.8812 315.54 43.6796 316.11 43.9073 316.587C45.6831 320.311 47.4908 323.972 49.4587 327.507C45.2501 326.216 41.1162 324.617 37.1614 322.805C28.7216 318.938 19.7813 315.409 11.8029 310.487C11.7934 310.465 11.7816 310.443 11.7733 310.421C9.75912 305.856 8.12929 301.167 7.02257 296.315C5.34529 288.971 4.84354 281.344 3.59091 273.76C3.50432 273.238 3.01323 272.886 2.49368 272.973C1.97412 273.06 1.623 273.552 1.70959 274.074C2.94679 281.532 3.445 289.198 5.16379 296.743C6.09377 300.82 7.38317 304.77 8.94539 308.622C8.09844 308.043 7.26099 307.451 6.4437 306.831C1.57911 303.14 -2.92962 298.73 -6.72663 293.943C-9.62688 290.287 -12.1226 286.278 -14.2269 282.052C-14.4737 278.81 -14.5614 275.524 -14.5614 272.192C-14.5614 270.21 -14.5318 268.211 -14.4879 266.197C-14.476 265.669 -14.8936 265.231 -15.4202 265.22C-15.9469 265.208 -16.3823 265.627 -16.3941 266.156C-16.438 268.179 -16.4677 270.191 -16.4677 272.192C-16.4677 273.901 -16.4416 275.602 -16.387 277.297C-18.7641 271.576 -20.477 265.568 -21.5363 259.568C-21.6312 259.036 -21.7178 258.498 -21.7996 257.957C-21.9538 256.935 -22.0819 255.896 -22.1851 254.85C-22.9146 247.469 -22.2788 239.672 -18.859 233.743V233.742Z" fill="#D91F26" fill-opacity="0.4"/>
<path d="M91.4916 284.405C92.1546 282.417 93.3729 279.956 94.8698 277.92C95.6195 276.902 96.4392 275.991 97.33 275.304C97.7748 274.96 98.241 274.672 98.7333 274.465C99.2256 274.258 99.7487 274.132 100.29 274.132C100.982 274.128 101.692 274.352 102.305 274.791C102.923 275.229 103.454 275.861 103.924 276.681C105.709 279.812 106.814 284.202 107.544 288.804C108.099 292.323 108.42 295.957 108.595 299.21C108.063 298.067 107.466 296.976 106.833 296.001C106.701 295.799 106.556 295.611 106.416 295.419C106.235 293.338 105.99 291.195 105.661 289.104C104.958 284.623 103.851 280.383 102.269 277.635C101.9 276.989 101.53 276.587 101.205 276.357C100.877 276.129 100.599 276.051 100.288 276.048C100.046 276.048 99.7748 276.105 99.4699 276.232C98.9373 276.454 98.3193 276.903 97.7048 277.522C96.7796 278.448 95.8603 279.739 95.0893 281.09C94.3159 282.44 93.6848 283.854 93.3005 285.014C92.998 285.921 92.7383 286.864 92.4986 287.826C91.8676 287.742 91.2247 287.694 90.5723 287.682C90.8415 286.577 91.1357 285.48 91.4904 284.41L91.4916 284.405Z" fill="white" fill-opacity="0.4"/>
<path d="M99.9812 288.688C99.8329 288.427 99.7 288.296 99.6229 288.244C99.5423 288.19 99.5257 288.193 99.4782 288.189C99.4426 288.189 99.3798 288.197 99.2849 288.238C99.12 288.305 98.8697 288.477 98.6087 288.74C98.4249 288.925 98.2363 289.152 98.0512 289.402C97.4474 289.147 96.8378 288.915 96.2186 288.707C96.3134 288.563 96.4048 288.414 96.5068 288.276C96.8828 287.768 97.2944 287.304 97.7701 286.936C98.0085 286.753 98.2635 286.593 98.5471 286.474C98.8294 286.355 99.1437 286.277 99.4782 286.277C99.9076 286.273 100.356 286.417 100.723 286.68C101.091 286.943 101.387 287.303 101.636 287.737C102.335 288.967 102.804 290.523 103.146 292.193C102.405 291.653 101.625 291.161 100.81 290.718C100.57 289.928 100.293 289.228 99.9823 288.689L99.9812 288.688Z" fill="white" fill-opacity="0.4"/>
<path d="M-50.0572 223.582C-49.8543 223.104 -49.3099 222.876 -48.8271 223.068C-47.7239 223.506 -46.89 224.114 -46.355 224.899C-45.8189 225.683 -45.6255 226.588 -45.6279 227.477C-45.6303 228.475 -45.8497 229.491 -46.1237 230.549C-46.871 233.403 -47.508 235.942 -47.5068 238.69C-47.5068 239.053 -47.4962 239.419 -47.4725 239.792C-47.2862 242.808 -46.6065 246.101 -45.1914 248.753C-44.4856 250.081 -43.6007 251.249 -42.5118 252.17C-41.4217 253.091 -40.1287 253.774 -38.5522 254.136C-37.9248 254.278 -37.34 254.344 -36.7884 254.344C-35.5156 254.342 -34.4219 254.002 -33.4184 253.41C-31.9167 252.522 -30.6332 251.024 -29.5692 249.271C-28.5028 247.521 -27.657 245.533 -26.9774 243.728C-26.0177 241.192 -24.7212 238.073 -22.8577 235.401C-21.9254 234.064 -20.8471 232.838 -19.5814 231.861C-18.4866 231.017 -17.2434 230.365 -15.8556 230.017C-16.9101 230.966 -17.8318 232.033 -18.5625 233.218C-18.6681 233.389 -18.757 233.567 -18.8578 233.74C-20.267 234.951 -21.4805 236.61 -22.4923 238.413C-23.6109 240.399 -24.4911 242.543 -25.1933 244.405C-26.1316 246.885 -27.3818 249.772 -29.2074 252.107C-30.122 253.273 -31.186 254.306 -32.4469 255.054C-33.7055 255.804 -35.1657 256.257 -36.7884 256.255C-37.4894 256.255 -38.2189 256.172 -38.9769 255.999C-40.8464 255.572 -42.4359 254.737 -43.7419 253.631C-45.7038 251.969 -47.0312 249.722 -47.9101 247.315C-48.7891 244.904 -49.2256 242.319 -49.3775 239.91C-49.4024 239.497 -49.4154 239.09 -49.4154 238.687C-49.4154 235.638 -48.7156 232.916 -47.9706 230.061C-47.7085 229.063 -47.5353 228.179 -47.5365 227.474C-47.5401 226.839 -47.6611 226.376 -47.9303 225.976C-48.0988 225.73 -48.3419 225.487 -48.7073 225.256C-50.7701 229.99 -53.1104 234.631 -54.2931 239.473C-54.828 241.66 -55.0938 243.922 -55.0926 246.188C-55.0938 250.319 -54.2124 254.465 -52.5019 258.203C-51.2588 260.926 -49.4759 263.297 -47.2696 265.051C-45.0621 266.807 -42.4347 267.949 -39.4383 268.235C-38.9757 268.277 -38.5262 268.299 -38.0873 268.299C-34.8549 268.294 -32.231 267.168 -29.9345 265.321C-27.6452 263.475 -25.7188 260.886 -24.0546 258.045C-23.4555 257.025 -22.8482 255.931 -22.1839 254.846C-22.0807 255.892 -21.9538 256.931 -21.7984 257.953C-22.0024 258.308 -22.2053 258.664 -22.4105 259.015C-24.1435 261.97 -26.1826 264.746 -28.7389 266.811C-31.2892 268.878 -34.3946 270.216 -38.0873 270.211C-38.5867 270.211 -39.0967 270.187 -39.6175 270.137C-42.9934 269.82 -45.9849 268.515 -48.4546 266.55C-50.9243 264.584 -52.8791 261.966 -54.235 259C-56.0629 255.001 -56.9988 250.591 -56.9988 246.187C-56.9988 243.772 -56.7177 241.358 -56.1447 239.016C-54.8031 233.552 -52.1603 228.541 -50.0572 223.578V223.582Z" fill="white" fill-opacity="0.4"/>
<path d="M105.142 345.943C99.8993 343.062 95.5602 339.388 91.7039 335.257C90.8866 334.382 90.0942 333.482 89.3161 332.567C89.9317 332.479 90.5473 332.382 91.1606 332.267C91.2804 332.243 91.3931 332.215 91.5105 332.191C92.0313 332.786 92.558 333.374 93.0953 333.951C96.8496 337.972 101.027 341.501 106.058 344.267C109.039 345.906 112.371 347.682 115.81 349.038C119.247 350.399 122.785 351.333 126.157 351.332C126.603 351.332 127.047 351.315 127.487 351.282C128.981 351.171 130.465 350.665 131.504 349.949C132.025 349.592 132.433 349.188 132.698 348.778C132.962 348.366 133.091 347.96 133.093 347.531C133.093 347.168 133 346.773 132.756 346.316C132.513 345.86 132.109 345.348 131.5 344.806C130.338 343.77 128.945 342.909 127.469 342.104C125.993 341.296 124.438 340.547 122.963 339.703C119.11 337.499 115.45 334.993 112.07 332.079C109.545 329.902 107.218 327.551 104.939 325.176C105.474 324.815 106.003 324.446 106.528 324.069C108.722 326.352 110.94 328.584 113.312 330.627C116.586 333.45 120.143 335.888 123.906 338.04C125.302 338.839 126.849 339.586 128.38 340.423C129.911 341.261 131.43 342.188 132.764 343.374C133.505 344.035 134.059 344.711 134.434 345.409C134.811 346.104 135 346.827 135 347.53C135.001 348.366 134.732 349.15 134.298 349.819C133.643 350.825 132.641 351.597 131.482 352.165C130.32 352.729 128.991 353.084 127.631 353.189C127.141 353.226 126.65 353.244 126.158 353.244C122.436 353.241 118.684 352.229 115.111 350.819C111.539 349.407 108.141 347.591 105.142 345.943Z" fill="white" fill-opacity="0.4"/>
<path d="M44.3581 315.311C44.8326 315.084 45.4019 315.285 45.6297 315.762C47.6889 320.079 49.7802 324.279 52.0945 328.271C52.9817 329.8 53.8987 331.301 54.863 332.763C58.3469 338.043 62.4061 342.848 67.5814 346.956C70.8423 349.544 74.5302 352.388 78.4363 354.669C82.3424 356.953 86.4574 358.662 90.5509 359.04C90.8748 359.07 91.201 359.085 91.526 359.085C93.2199 359.089 94.8793 358.67 96.0288 357.972C96.6064 357.625 97.0525 357.216 97.3466 356.776C97.6396 356.334 97.7926 355.871 97.7938 355.324C97.7962 354.536 97.4498 353.509 96.4487 352.257C95.3218 350.851 93.9031 349.604 92.3836 348.405C90.8653 347.206 89.2508 346.059 87.7479 344.825C83.8169 341.596 80.1646 338.066 76.9049 334.127C76.5087 333.649 76.1303 333.159 75.746 332.674C71.3595 327.106 67.7285 321.067 63.6278 315.46C63.317 315.034 63.4084 314.435 63.833 314.123C64.2577 313.812 64.8544 313.903 65.1651 314.329C69.6905 320.525 73.5646 327.098 78.358 332.889C78.3627 332.895 78.3663 332.9 78.3711 332.906C81.5418 336.735 85.1039 340.181 88.9543 343.346C90.386 344.521 91.9933 345.666 93.5615 346.902C95.1296 348.141 96.6622 349.475 97.9338 351.06C99.1141 352.532 99.6989 353.966 99.7 355.325C99.7024 356.257 99.413 357.123 98.929 357.843C98.1995 358.927 97.0738 359.699 95.7856 360.217C94.4938 360.734 93.0229 360.996 91.526 360.998C91.1428 360.998 90.7585 360.981 90.3754 360.944C85.8761 360.524 81.524 358.686 77.4767 356.321C73.4294 353.957 69.6762 351.055 66.3988 348.454C61.0348 344.198 56.838 339.221 53.2735 333.817C51.9225 331.77 50.6627 329.661 49.4623 327.505C47.4944 323.969 45.6866 320.309 43.9109 316.584C43.6831 316.108 43.8848 315.537 44.3593 315.309L44.3581 315.311Z" fill="white" fill-opacity="0.4"/>
<path d="M-15.4191 265.219C-14.8924 265.23 -14.4748 265.668 -14.4867 266.196C-14.5306 268.21 -14.5603 270.209 -14.5603 272.191C-14.5603 275.523 -14.4725 278.807 -14.2258 282.051C-13.6504 289.567 -12.2068 296.858 -8.92345 303.971C-7.17856 307.756 -5.16559 311.964 -2.70542 315.768C-0.246437 319.574 2.65738 322.963 6.14124 325.151C7.69753 326.136 9.54324 326.698 11.0687 326.693C12.1671 326.693 13.0662 326.411 13.6534 325.909C13.95 325.654 14.1848 325.345 14.3592 324.936C14.5312 324.527 14.6391 324.013 14.6391 323.365C14.6391 322.901 14.5834 322.368 14.4553 321.767C14.0828 320.002 13.377 318.246 12.5597 316.488C11.7436 314.73 10.8196 312.975 10.0331 311.194C9.65711 310.342 9.29769 309.481 8.94895 308.62C7.38792 304.769 6.09734 300.817 5.16736 296.74C3.44856 289.196 2.95036 281.53 1.71316 274.071C1.62656 273.55 1.97768 273.057 2.49723 272.971C3.01678 272.884 3.50787 273.236 3.59446 273.757C4.84827 281.342 5.34885 288.967 7.02613 296.313C8.13285 301.166 9.76268 305.854 11.7768 310.419C11.7863 310.44 11.797 310.463 11.8065 310.485C12.5502 312.162 13.4553 313.888 14.288 315.68C15.1302 317.495 15.8989 319.378 16.32 321.369C16.4706 322.082 16.5453 322.746 16.5453 323.365C16.5453 324.225 16.4006 325.001 16.116 325.679C15.6925 326.698 14.9404 327.467 14.046 327.935C13.1505 328.407 12.1268 328.604 11.0699 328.605C9.0996 328.601 6.97513 327.928 5.12822 326.77C1.30155 324.36 -1.75409 320.749 -4.30441 316.808C-6.85355 312.866 -8.89855 308.578 -10.6541 304.774C-14.7809 295.83 -16.0821 286.664 -16.387 277.295C-16.4416 275.599 -16.4677 273.899 -16.4677 272.19C-16.4677 270.187 -16.438 268.175 -16.3941 266.153C-16.3823 265.625 -15.9469 265.206 -15.4202 265.218L-15.4191 265.219Z" fill="white" fill-opacity="0.4"/>
<path d="M68.2054 289.367C69.1709 292.85 70.8802 296.412 72.2099 300.07C72.3902 300.566 72.134 301.116 71.6406 301.296C71.1447 301.476 70.5979 301.221 70.4188 300.723C69.1389 297.185 67.4035 293.589 66.3691 289.88C66.1473 289.077 65.9587 288.159 65.8164 287.191C65.642 286.008 65.5364 284.747 65.5352 283.502C65.54 281.674 65.7487 279.901 66.362 278.461C66.6716 277.742 67.0927 277.095 67.6882 276.611C68.2789 276.124 69.0547 275.836 69.8909 275.842C70.6715 275.842 71.4923 276.069 72.3701 276.501C75.5942 278.096 78.9582 281.115 82.1289 284.52C83.2914 285.771 84.423 287.074 85.5036 288.38C87.366 290.627 89.0729 292.879 90.5047 294.871C90.8131 295.299 90.7158 295.897 90.2888 296.206C89.8617 296.514 89.2663 296.418 88.9567 295.989C87.4312 293.868 85.5819 291.444 83.5785 289.059C82.6568 287.962 81.7055 286.872 80.7328 285.826C77.6534 282.505 74.37 279.612 71.5291 278.22C70.8375 277.879 70.2919 277.755 69.8898 277.757C69.4556 277.761 69.1721 277.876 68.8874 278.099C68.4663 278.433 68.0689 279.126 67.8175 280.094C67.5613 281.054 67.4426 282.255 67.4426 283.504C67.4403 285.295 67.6846 287.197 68.0381 288.704C68.0915 288.935 68.1484 289.158 68.2065 289.368L68.2054 289.367Z" fill="white" fill-opacity="0.4"/>
<path d="M74.9252 293.362C75.3629 294.952 76.1659 296.631 76.81 298.394C76.9903 298.891 76.7353 299.439 76.2406 299.62C75.746 299.801 75.1992 299.545 75.0189 299.049C74.4258 297.407 73.5966 295.693 73.0889 293.875C72.8576 293.036 72.7046 291.988 72.6832 290.936C72.6821 290.863 72.6749 290.792 72.6749 290.719C72.6797 289.811 72.7746 288.921 73.1067 288.133C73.2764 287.741 73.5148 287.363 73.8801 287.065C74.2407 286.765 74.7377 286.583 75.2383 286.589C75.708 286.589 76.1695 286.724 76.6345 286.952C78.0947 287.677 79.5442 288.931 80.9285 290.362C81.0874 290.526 81.2452 290.69 81.403 290.858C82.9225 292.494 84.3281 294.306 85.4099 295.809C85.7184 296.237 85.6211 296.834 85.194 297.144C84.767 297.453 84.1716 297.356 83.8631 296.927C82.8169 295.472 81.4492 293.712 80.008 292.162C79.6853 291.814 79.3568 291.477 79.0282 291.156C77.8966 290.049 76.759 289.139 75.7934 288.669C75.5147 288.531 75.3297 288.5 75.2383 288.501C75.1387 288.507 75.1339 288.514 75.0794 288.552C75.0034 288.604 74.8445 288.834 74.7425 289.234C74.6369 289.628 74.5811 290.159 74.5823 290.719C74.5823 290.944 74.5907 291.174 74.6073 291.403C74.6571 292.12 74.7781 292.832 74.9263 293.362H74.9252Z" fill="white" fill-opacity="0.4"/>
<path d="M106.13 303C106.928 303.001 107.582 303.23 108.04 303.452C108.499 303.675 108.769 303.898 108.812 303.934C109.217 304.272 109.271 304.876 108.935 305.281C108.6 305.684 108.003 305.74 107.599 305.408C107.599 305.408 107.423 305.271 107.155 305.147C106.886 305.023 106.528 304.912 106.132 304.912C105.811 304.913 105.463 304.977 105.059 305.186C104.658 305.394 104.197 305.753 103.701 306.379C103.372 306.792 102.773 306.86 102.361 306.533C101.949 306.204 101.88 305.602 102.208 305.188C102.84 304.389 103.508 303.836 104.181 303.486C104.855 303.135 105.53 302.997 106.129 302.998L106.13 303Z" fill="white" fill-opacity="0.4"/>
<path d="M92.6315 305.459C92.1962 305.757 91.6031 305.643 91.3065 305.206C91.0112 304.768 91.1238 304.174 91.5604 303.878C91.5959 303.854 91.9613 303.606 92.5425 303.357C93.125 303.108 93.9256 302.847 94.8544 302.845C95.5187 302.844 96.2541 302.988 96.9528 303.384C97.6527 303.777 98.2932 304.414 98.808 305.305C99.0725 305.762 98.9183 306.347 98.4628 306.612C98.0073 306.878 97.4237 306.722 97.1592 306.266C96.7844 305.62 96.3941 305.265 96.0181 305.051C95.6409 304.838 95.2577 304.76 94.8556 304.758C94.2993 304.756 93.7216 304.93 93.2958 305.115C93.0822 305.207 92.9079 305.299 92.7905 305.366C92.7323 305.4 92.6884 305.427 92.6611 305.444L92.6339 305.46L92.6315 305.459Z" fill="white" fill-opacity="0.4"/>
<path d="M105.638 318.754C105.196 319.032 104.671 319.201 104.121 319.201C103.571 319.201 103.045 319.032 102.604 318.754C102.044 318.401 101.61 317.889 101.28 317.291C100.405 318.449 99.0215 319.201 97.4593 319.201C94.8117 319.201 92.6647 317.052 92.6647 314.397C92.6647 313.869 93.0917 313.44 93.6184 313.44C94.1451 313.44 94.5721 313.869 94.5721 314.397C94.5721 315.198 94.8936 315.914 95.4167 316.44C95.9422 316.965 96.6575 317.288 97.4593 317.288C98.26 317.288 98.9765 316.965 99.5019 316.44C100.025 315.914 100.347 315.198 100.347 314.397C100.347 314.296 100.367 314.201 100.395 314.11C99.9076 313.557 99.4924 312.869 99.4924 312.479C99.4924 311.755 103.638 311.566 103.638 312.29C103.638 312.757 103.058 313.731 102.469 314.363C102.469 314.376 102.472 314.386 102.472 314.398C102.47 315.285 102.722 316.073 103.07 316.581C103.242 316.837 103.434 317.019 103.612 317.131C103.792 317.242 103.953 317.288 104.121 317.288C104.289 317.288 104.45 317.241 104.63 317.131C104.898 316.965 105.194 316.63 105.413 316.15C105.632 315.673 105.771 315.062 105.771 314.398C105.771 313.87 106.198 313.442 106.725 313.442C107.251 313.442 107.678 313.87 107.678 314.398C107.676 315.636 107.346 316.772 106.751 317.655C106.452 318.097 106.083 318.476 105.639 318.755L105.638 318.754Z" fill="white" fill-opacity="0.4"/>
<path d="M96.8579 311.833C97.1889 311.833 97.4581 312.102 97.4581 312.435C97.4581 312.768 97.1889 313.036 96.8579 313.036C96.527 313.036 96.2577 312.767 96.2577 312.435C96.2577 312.103 96.5258 311.833 96.8579 311.833Z" fill="white" fill-opacity="0.4"/>
<path d="M97.9824 313.932C98.3146 313.932 98.5826 314.201 98.5826 314.533C98.5826 314.865 98.3134 315.135 97.9824 315.135C97.6515 315.135 97.3822 314.866 97.3822 314.533C97.3822 314.2 97.6515 313.932 97.9824 313.932Z" fill="white" fill-opacity="0.4"/>
<path d="M95.8532 315.212C95.5217 315.212 95.253 314.943 95.253 314.61C95.253 314.278 95.5217 314.008 95.8532 314.008C96.1847 314.008 96.4534 314.278 96.4534 314.61C96.4534 314.943 96.1847 315.212 95.8532 315.212Z" fill="white" fill-opacity="0.4"/>
<path d="M104.375 313.151C104.176 313.151 104.014 312.882 104.014 312.549C104.014 312.216 104.176 311.947 104.375 311.947C104.574 311.947 104.733 312.217 104.733 312.549C104.733 312.881 104.573 313.151 104.375 313.151Z" fill="white" fill-opacity="0.4"/>
<path d="M105.049 314.046C105.248 314.046 105.408 314.315 105.408 314.648C105.408 314.981 105.247 315.25 105.049 315.25C104.851 315.25 104.689 314.981 104.689 314.648C104.689 314.315 104.851 314.046 105.049 314.046Z" fill="white" fill-opacity="0.4"/>
<path d="M103.772 315.326C103.574 315.326 103.413 315.056 103.413 314.724C103.413 314.392 103.574 314.123 103.772 314.123C103.97 314.123 104.132 314.392 104.132 314.724C104.132 315.056 103.97 315.326 103.772 315.326Z" fill="white" fill-opacity="0.4"/>
<path d="M128.36 344.885L131.061 347.596C131.433 347.969 131.433 348.576 131.061 348.949C130.688 349.323 130.084 349.323 129.712 348.949L127.011 346.238C126.639 345.865 126.639 345.259 127.011 344.885C127.383 344.512 127.987 344.512 128.36 344.885Z" fill="white" fill-opacity="0.4"/>
<path d="M121.353 344.871L125.484 348.858C125.864 349.224 125.876 349.83 125.51 350.211C125.145 350.591 124.543 350.603 124.163 350.237L120.03 346.252C119.651 345.885 119.639 345.281 120.004 344.899C120.369 344.518 120.972 344.506 121.353 344.871Z" fill="white" fill-opacity="0.4"/>
<path d="M94.3123 353.516L96.5483 355.907C96.9089 356.293 96.8888 356.898 96.5056 357.26C96.1213 357.622 95.5175 357.602 95.1581 357.217L92.9221 354.825C92.5615 354.44 92.5817 353.834 92.9648 353.472C93.3491 353.111 93.9517 353.131 94.3123 353.516Z" fill="white" fill-opacity="0.4"/>
<path d="M88.4442 353.663L90.5367 357.01C90.8166 357.458 90.6814 358.048 90.2354 358.329C89.7894 358.609 89.201 358.475 88.9211 358.026L86.8286 354.679C86.5487 354.231 86.6827 353.641 87.1299 353.36C87.5759 353.08 88.1643 353.214 88.4442 353.663Z" fill="white" fill-opacity="0.4"/>
<path d="M9.80302 320.174L11.7104 322.088C12.0829 322.46 12.0829 323.067 11.7104 323.441C11.338 323.815 10.7342 323.815 10.3617 323.441L8.45432 321.527C8.08185 321.154 8.08185 320.548 8.45432 320.174C8.82678 319.801 9.43055 319.801 9.80302 320.174Z" fill="white" fill-opacity="0.4"/>
<path d="M5.69995 320.204L7.44722 322.118C7.80308 322.507 7.77579 323.113 7.38909 323.469C7.00121 323.826 6.39744 323.8 6.04158 323.411L4.29313 321.499C3.93727 321.109 3.96455 320.504 4.35244 320.147C4.74032 319.79 5.3441 319.817 5.69995 320.207V320.204Z" fill="white" fill-opacity="0.4"/>
</g>
</g>
<path d="M64.9062 69.0039C64.9062 71.901 64.3529 74.6191 63.2461 77.1582C62.1393 79.6973 60.6257 81.9271 58.7051 83.8477C56.8171 85.7357 54.6035 87.2331 52.0645 88.3398C49.5254 89.4466 46.8073 90 43.9102 90H15.8828V75.9863H43.9102C44.8867 75.9863 45.7982 75.8073 46.6445 75.4492C47.4909 75.0911 48.2233 74.6029 48.8418 73.9844C49.4928 73.3333 49.9974 72.5846 50.3555 71.7383C50.7135 70.8919 50.8926 69.9805 50.8926 69.0039C50.8926 68.0273 50.7135 67.1159 50.3555 66.2695C49.9974 65.4232 49.4928 64.6908 48.8418 64.0723C48.2233 63.4212 47.4909 62.9167 46.6445 62.5586C45.7982 62.2005 44.8867 62.0215 43.9102 62.0215H24.8184V48.0078H43.9102C44.8867 48.0078 45.7982 47.8288 46.6445 47.4707C47.4909 47.1126 48.2233 46.6243 48.8418 46.0059C49.4928 45.3548 49.9974 44.6061 50.3555 43.7598C50.7135 42.8809 50.8926 41.9531 50.8926 40.9766C50.8926 40 50.7135 39.0885 50.3555 38.2422C49.9974 37.3958 49.4928 36.6634 48.8418 36.0449C48.2233 35.3939 47.4909 34.8893 46.6445 34.5312C45.7982 34.1732 44.8867 33.9941 43.9102 33.9941H15.8828V19.9805H43.9102C46.8073 19.9805 49.5254 20.5339 52.0645 21.6406C54.6035 22.7474 56.8171 24.2611 58.7051 26.1816C60.6257 28.0697 62.1393 30.2832 63.2461 32.8223C64.3529 35.3613 64.9062 38.0794 64.9062 40.9766C64.9062 43.5482 64.4342 46.0547 63.4902 48.4961C62.5462 50.9049 61.2116 53.0697 59.4863 54.9902C61.2116 56.9108 62.5462 59.0918 63.4902 61.5332C64.4342 63.9421 64.9062 66.4323 64.9062 69.0039Z" fill="white"/>
<path d="M30.6644 101C39.4393 101 44.0999 109.631 45.3333 113.946V141C14.1454 130.046 19.6958 101 30.6644 101Z" fill="#D91F26"/>
<path d="M60.0023 103C56.3425 103 53.4872 104.781 51.3295 107.189C49.2441 109.517 47.9245 112.319 47.3334 114.237V138.095C60.3476 132.697 65.5286 123.938 66.4938 116.63C67.0159 112.677 66.3139 109.14 64.9669 106.666C63.6073 104.168 61.7684 103 60.0023 103Z" stroke="#D91F26" stroke-width="4"/>
<rect x="74.5" y="101.5" width="121" height="176" rx="13.5" stroke="#D91F26"/>
<rect opacity="0.5" x="79.5" y="107.5" width="111" height="164" rx="10.5" stroke="#D91F26"/>
<path d="M103.049 144.951C122.162 144.951 132.313 163.75 135 173.15V232.077C67.068 208.217 79.1577 144.951 103.049 144.951Z" fill="#D91F26"/>
<path d="M166.951 146.951C158.122 146.951 151.31 151.274 146.305 156.86C141.376 162.363 138.319 168.974 137 173.434V229.219C168.404 217.331 181.119 196.775 183.426 179.305C184.62 170.267 183.037 162.05 179.834 156.165C176.618 150.258 171.948 146.951 166.951 146.951Z" stroke="#D91F26" stroke-width="4"/>
</svg>
